# xmcd
#
# Track frame offsets: 
#        187
#        49797
#        81810
#        118880
#        156812
#        175427
#
# Disc length: 2643 seconds
#
# Revision: 1
# Processed by: cddbd v1.5.2PL0 Copyright (c) Steve Scherf et al.
# Submitted via: ExactAudioCopy v0.95b4
#
DISCID=4a0a5106
DTITLE=Cannonball Adderley - Somethin' Else
DYEAR=1958
DGENRE=Jazz
TTITLE0=Autumn Leaves
TTITLE1=Love For Sale
TTITLE2=Somethin' Else
TTITLE3=One For Daddy-O
TTITLE4=Dancing In The Dark
TTITLE5=Alison's Uncle
EXTD=YEAR: 1958
EXTT0=
EXTT1=
EXTT2=
EXTT3=
EXTT4=
EXTT5=
PLAYORDER=
